<svg xmlns="http://www.w3.org/2000/svg" width="600" height="400" viewBox="0 0 600 400">
  <defs>
    <linearGradient id="bg" x1="0%" y1="0%" x2="100%" y2="100%">
      <stop offset="0%" stop-color="#8A9B6A"/>
      <stop offset="50%" stop-color="#728258"/>
      <stop offset="100%" stop-color="#596341"/>
    </linearGradient>
    <linearGradient id="accent" x1="0%" y1="0%" x2="100%" y2="100%">
      <stop offset="0%" stop-color="#FF8562"/>
      <stop offset="100%" stop-color="#FF6B47"/>
    </linearGradient>
  </defs>
  <rect width="600" height="400" fill="url(#bg)"/>
  <circle cx="480" cy="60" r="100" fill="rgba(255,255,255,0.03)"/>
  <circle cx="120" cy="340" r="110" fill="rgba(255,255,255,0.03)"/>
  <circle cx="300" cy="180" r="70" fill="rgba(255,255,255,0.1)" stroke="rgba(255,255,255,0.2)" stroke-width="2"/>
  <!-- Hands icon -->
  <g transform="translate(255, 135)" fill="none" stroke="#fff" stroke-width="2.5" stroke-linecap="round" stroke-linejoin="round">
    <path d="M15 50 Q5 40 10 25 Q15 10 30 15 L45 25"/>
    <path d="M75 50 Q85 40 80 25 Q75 10 60 15 L45 25"/>
    <path d="M45 25 L45 55"/>
    <circle cx="45" cy="65" r="12" fill="url(#accent)" stroke="none" opacity="0.8"/>
    <path d="M30 35 Q45 45 60 35" stroke="rgba(255,255,255,0.5)" stroke-width="1.5"/>
  </g>
  <text x="300" y="290" font-family="Georgia, serif" font-size="22" fill="rgba(255,255,255,0.9)" text-anchor="middle" font-weight="500">Ручной массаж</text>
  <text x="300" y="320" font-family="sans-serif" font-size="13" fill="rgba(255,255,255,0.6)" text-anchor="middle">Авторские техники и релаксация</text>
</svg>